<svg xmlns="http://www.w3.org/2000/svg" viewBox="0 0 256 256">
  <defs>
    <linearGradient id="grad" x1="0%" y1="0%" x2="100%" y2="100%">
      <stop offset="0%" stop-color="#8B5CF6" />
      <stop offset="100%" stop-color="#6D28D9" />
    </linearGradient>
  </defs>
  <path fill="url(#grad)" d="M64,24 C50.7,24 40,34.7 40,48 L40,208 C40,221.3 50.7,232 64,232 L192,232 C205.3,232 216,221.3 216,208 L216,88 L152,24 L64,24 Z" />
  <path fill="#5B21B6" d="M152,24 L152,88 L216,88 Z" opacity="0.6" />
  <path fill="white" d="M100,100 C90,100 85,110 85,120 L85,125 C85,130 80,135 75,135 L70,135 L70,145 L75,145 C80,145 85,150 85,155 L85,160 C85,170 90,180 100,180 L105,180 L105,165 L100,165 C98,165 95,163 95,160 L95,155 C95,145 90,140 85,140 C90,140 95,135 95,125 L95,120 C95,117 98,115 100,115 L105,115 L105,100 L100,100 Z" />
  <path fill="white" d="M156,100 C166,100 171,110 171,120 L171,125 C171,130 176,135 181,135 L186,135 L186,145 L181,145 C176,145 171,150 171,155 L171,160 C171,170 166,180 156,180 L151,180 L151,165 L156,165 C158,165 161,163 161,160 L161,155 C161,145 166,140 171,140 C166,140 161,135 161,125 L161,120 C161,117 158,115 156,115 L151,115 L151,100 L156,100 Z" />
  <circle cx="196" cy="196" r="44" fill="#22C55E" stroke="white" stroke-width="6" />
  <path fill="none" stroke="white" stroke-width="8" stroke-linecap="round" stroke-linejoin="round" d="M176,196 L190,210 L216,180" />
</svg>